<svg xmlns="http://www.w3.org/2000/svg" viewBox="0 0 100 100">
  <defs>
    <linearGradient id="grad1" x1="0%" y1="0%" x2="100%" y2="100%">
      <stop offset="0%" style="stop-color:#3B82F6;stop-opacity:1" />
      <stop offset="100%" style="stop-color:#9333EA;stop-opacity:1" />
    </linearGradient>
  </defs>
  <circle cx="50" cy="50" r="45" fill="url(#grad1)"/>
  <path d="M50 25 C40 25 35 30 35 40 C35 45 37 48 40 50 C37 52 35 55 35 60 L35 70 C35 72 37 75 40 75 L60 75 C63 75 65 72 65 70 L65 60 C65 55 63 52 60 50 C63 48 65 45 65 40 C65 30 60 25 50 25 Z" fill="white" opacity="0.9"/>
  <circle cx="45" cy="38" r="2" fill="#3B82F6"/>
  <circle cx="55" cy="38" r="2" fill="#3B82F6"/>
  <path d="M45 43 Q50 46 55 43" stroke="#3B82F6" stroke-width="2" fill="none" stroke-linecap="round"/>
</svg>
